<svg width="118" height="37" viewBox="0 0 118 37" fill="none" xmlns="http://www.w3.org/2000/svg">
<path fill-rule="evenodd" clip-rule="evenodd" d="M17.8423 0L12.3363 0V4.59591H4.59581V12.3364H0V24.6728L4.59581 24.6728V32.4133H12.3363V37.0092H17.8423V0Z" fill="#FFC42B"/>
<path fill-rule="evenodd" clip-rule="evenodd" d="M17.7563 37.0091C27.9535 36.9825 36.2117 28.708 36.2117 18.5046C36.2117 8.30122 27.9535 0.0266419 17.7563 6.10352e-05V37.0091Z" fill="#E1FF2B"/>
<path d="M42.9357 24V11.6364H48.043C48.9686 11.6364 49.7675 11.8175 50.4396 12.1797C51.1158 12.5379 51.637 13.0389 52.0032 13.6829C52.3694 14.3228 52.5526 15.0674 52.5526 15.9165C52.5526 16.7698 52.3654 17.5163 51.9911 18.1562C51.6209 18.7921 51.0916 19.2852 50.4034 19.6353C49.7152 19.9854 48.8982 20.1605 47.9524 20.1605H44.8011V17.8061H47.397C47.8478 17.8061 48.2241 17.7276 48.5259 17.5707C48.8318 17.4137 49.0632 17.1944 49.2202 16.9126C49.3771 16.6269 49.4556 16.2949 49.4556 15.9165C49.4556 15.5342 49.3771 15.2042 49.2202 14.9265C49.0632 14.6448 48.8318 14.4274 48.5259 14.2745C48.2201 14.1216 47.8438 14.0451 47.397 14.0451H45.924V24H42.9357ZM54.0256 24V14.7273H56.9776V24H54.0256ZM55.5046 13.6467C55.0901 13.6467 54.7339 13.5098 54.4361 13.2362C54.1383 12.9585 53.9893 12.6244 53.9893 12.234C53.9893 11.8477 54.1383 11.5176 54.4361 11.244C54.7339 10.9663 55.0901 10.8274 55.5046 10.8274C55.9232 10.8274 56.2794 10.9663 56.5732 11.244C56.871 11.5176 57.0199 11.8477 57.0199 12.234C57.0199 12.6244 56.871 12.9585 56.5732 13.2362C56.2794 13.5098 55.9232 13.6467 55.5046 13.6467ZM63.1851 24.1751C62.2071 24.1751 61.368 23.9738 60.6677 23.5714C59.9714 23.1689 59.4362 22.6095 59.0619 21.8931C58.6876 21.1727 58.5004 20.3396 58.5004 19.3938C58.5004 18.444 58.6876 17.6109 59.0619 16.8945C59.4402 16.1741 59.9775 15.6127 60.6737 15.2102C61.374 14.8078 62.2091 14.6065 63.1791 14.6065C64.0363 14.6065 64.7829 14.7615 65.4188 15.0714C66.0587 15.3813 66.5577 15.82 66.9159 16.3874C67.2781 16.9509 67.4693 17.6129 67.4894 18.3736H64.7306C64.6742 17.8987 64.5132 17.5264 64.2476 17.2567C63.986 16.9871 63.6439 16.8523 63.2213 16.8523C62.8792 16.8523 62.5794 16.9489 62.3218 17.142C62.0642 17.3312 61.863 17.6129 61.7181 17.9872C61.5773 18.3575 61.5068 18.8163 61.5068 19.3636C61.5068 19.911 61.5773 20.3738 61.7181 20.7521C61.863 21.1264 62.0642 21.4102 62.3218 21.6033C62.5794 21.7925 62.8792 21.8871 63.2213 21.8871C63.495 21.8871 63.7365 21.8287 63.9458 21.712C64.1591 21.5953 64.3341 21.4242 64.471 21.1989C64.6078 20.9695 64.6943 20.6918 64.7306 20.3658H67.4894C67.4613 21.1304 67.2701 21.7985 66.9159 22.37C66.5658 22.9415 66.0728 23.3862 65.4369 23.7042C64.805 24.0181 64.0544 24.1751 63.1851 24.1751ZM70.7931 18.4219V24H69.3684V14.7273H70.7449V16.1761H70.8656C71.0829 15.7053 71.4129 15.3269 71.8556 15.0412C72.2984 14.7514 72.8699 14.6065 73.5701 14.6065C74.198 14.6065 74.7473 14.7353 75.2182 14.9929C75.6891 15.2464 76.0553 15.6328 76.3169 16.152C76.5785 16.6671 76.7093 17.3191 76.7093 18.108V24H75.2846V18.2045C75.2846 17.4761 75.0955 16.9086 74.7172 16.5021C74.3388 16.0916 73.8197 15.8864 73.1596 15.8864C72.7048 15.8864 72.2984 15.985 71.9402 16.1822C71.586 16.3794 71.3063 16.6671 71.101 17.0455C70.8958 17.4238 70.7931 17.8826 70.7931 18.4219ZM83.0798 24.1932C82.2427 24.1932 81.5082 23.994 80.8763 23.5955C80.2485 23.1971 79.7575 22.6397 79.4033 21.9233C79.0532 21.2069 78.8781 20.3698 78.8781 19.4119C78.8781 18.446 79.0532 17.6029 79.4033 16.8825C79.7575 16.162 80.2485 15.6026 80.8763 15.2042C81.5082 14.8058 82.2427 14.6065 83.0798 14.6065C83.9169 14.6065 84.6494 14.8058 85.2773 15.2042C85.9091 15.6026 86.4001 16.162 86.7503 16.8825C87.1044 17.6029 87.2815 18.446 87.2815 19.4119C87.2815 20.3698 87.1044 21.2069 86.7503 21.9233C86.4001 22.6397 85.9091 23.1971 85.2773 23.5955C84.6494 23.994 83.9169 24.1932 83.0798 24.1932ZM83.0798 22.9134C83.7157 22.9134 84.2389 22.7504 84.6494 22.4244C85.0599 22.0984 85.3638 21.6697 85.561 21.1385C85.7582 20.6072 85.8568 20.0317 85.8568 19.4119C85.8568 18.7921 85.7582 18.2146 85.561 17.6793C85.3638 17.1441 85.0599 16.7114 84.6494 16.3814C84.2389 16.0514 83.7157 15.8864 83.0798 15.8864C82.4439 15.8864 81.9207 16.0514 81.5102 16.3814C81.0997 16.7114 80.7958 17.1441 80.5986 17.6793C80.4014 18.2146 80.3028 18.7921 80.3028 19.4119C80.3028 20.0317 80.4014 20.6072 80.5986 21.1385C80.7958 21.6697 81.0997 22.0984 81.5102 22.4244C81.9207 22.7504 82.4439 22.9134 83.0798 22.9134ZM89.4563 24V14.7273H90.8327V16.1761H90.9535C91.1467 15.6811 91.4586 15.2968 91.8892 15.0231C92.3198 14.7454 92.837 14.6065 93.4407 14.6065C94.0524 14.6065 94.5616 14.7454 94.968 15.0231C95.3786 15.2968 95.6985 15.6811 95.9279 16.1761H96.0245C96.262 15.6972 96.6181 15.3169 97.093 15.0352C97.5679 14.7494 98.1374 14.6065 98.8015 14.6065C99.6306 14.6065 100.309 14.8661 100.836 15.3853C101.363 15.9004 101.627 16.7034 101.627 17.794V24H100.202V17.794C100.202 17.1098 100.015 16.6209 99.6406 16.3271C99.2663 16.0333 98.8256 15.8864 98.3185 15.8864C97.6665 15.8864 97.1615 16.0836 96.8033 16.478C96.4451 16.8684 96.266 17.3634 96.266 17.9631V24H94.8171V17.6491C94.8171 17.1219 94.6461 16.6973 94.304 16.3754C93.9619 16.0494 93.5212 15.8864 92.9819 15.8864C92.6116 15.8864 92.2655 15.985 91.9435 16.1822C91.6256 16.3794 91.368 16.6531 91.1708 17.0032C90.9776 17.3493 90.881 17.7498 90.881 18.2045V24H89.4563ZM104.232 24V14.7273H105.656V24H104.232ZM104.956 13.1818C104.678 13.1818 104.439 13.0872 104.238 12.8981C104.041 12.7089 103.942 12.4815 103.942 12.2159C103.942 11.9503 104.041 11.7229 104.238 11.5337C104.439 11.3446 104.678 11.25 104.956 11.25C105.234 11.25 105.471 11.3446 105.669 11.5337C105.87 11.7229 105.97 11.9503 105.97 12.2159C105.97 12.4815 105.87 12.7089 105.669 12.8981C105.471 13.0872 105.234 13.1818 104.956 13.1818ZM112.033 24.1932C111.164 24.1932 110.415 23.9879 109.787 23.5774C109.159 23.1669 108.676 22.6014 108.338 21.881C108 21.1606 107.831 20.3376 107.831 19.4119C107.831 18.4702 108.004 17.6391 108.35 16.9187C108.701 16.1942 109.188 15.6288 109.811 15.2223C110.439 14.8118 111.172 14.6065 112.009 14.6065C112.661 14.6065 113.248 14.7273 113.772 14.9688C114.295 15.2102 114.723 15.5483 115.057 15.983C115.391 16.4176 115.599 16.9247 115.679 17.5043H114.255C114.146 17.0817 113.904 16.7074 113.53 16.3814C113.16 16.0514 112.661 15.8864 112.033 15.8864C111.478 15.8864 110.991 16.0312 110.572 16.321C110.157 16.6068 109.833 17.0112 109.6 17.5344C109.371 18.0536 109.256 18.6634 109.256 19.3636C109.256 20.08 109.369 20.7038 109.594 21.2351C109.823 21.7663 110.145 22.1789 110.56 22.4727C110.978 22.7665 111.469 22.9134 112.033 22.9134C112.403 22.9134 112.739 22.849 113.041 22.7202C113.343 22.5914 113.599 22.4062 113.808 22.1648C114.017 21.9233 114.166 21.6335 114.255 21.2955H115.679C115.599 21.8428 115.4 22.3358 115.082 22.7745C114.768 23.2092 114.351 23.5553 113.832 23.8129C113.317 24.0664 112.717 24.1932 112.033 24.1932Z" fill="#101010"/>
</svg>
